<?xml version="1.0" encoding="utf-8"?>
<!-- Generator: Adobe Illustrator 15.1.0, SVG Export Plug-In . SVG Version: 6.00 Build 0)  -->
<!DOCTYPE svg PUBLIC "-//W3C//DTD SVG 1.1//EN" "http://www.w3.org/Graphics/SVG/1.1/DTD/svg11.dtd">
<svg version="1.1" id="Calque_1" xmlns="http://www.w3.org/2000/svg" xmlns:xlink="http://www.w3.org/1999/xlink" x="0px" y="0px"
	 width="141.732px" height="141.732px" viewBox="0 0 141.732 141.732" enable-background="new 0 0 141.732 141.732"
	 xml:space="preserve">
<circle fill="#445843" cx="70.866" cy="70.866" r="70.866"/>
<g>
	<path fill="#FFFFFF" d="M113.101,61.988c-0.613-1.299-1.352-2.562-2.197-3.753c-4.514-6.35-11.309-10.32-18.646-10.891
		c-4.194-0.323-8.646,0.735-11.185,1.743c-6.145,2.445-9.101,5.601-13.75,14.679c-0.925,1.81-2.326,4.544-3.738,6.032
		c-0.789,0.829-1.661,1.575-2.587,2.23c-5.689-2.484-9.352-8.045-9.352-14.28c0-4.057,1.526-7.851,4.311-10.762
		c5.341,6.123,12.256,8.259,12.562,8.35c0.013,0.004,0.026,0.008,0.04,0.012h0.001c0.001,0,0.004,0,0.004,0s0,0,0,0
		c0.051,0.011,0.101,0.018,0.155,0.018l0,0h0.002h0.001c0.06,0,0.118-0.01,0.177-0.024c0.002-0.001,0.003-0.002,0.004-0.002
		c0,0,0.001,0,0.002,0c0,0,0.001,0,0.003,0c0,0.001,0.004,0,0.008-0.003c0.425-0.126,15.006-4.617,18.14-19.555
		c0.006-0.017,0.019-0.031,0.024-0.05c0.076-0.284,1.874-7.021-0.378-13.138c-0.122-0.333-0.478-0.519-0.822-0.423
		c-4.619,1.272-8.228,4.513-9.894,6.235c-4.232-2.012-8.769-3.042-13.497-3.042c-1.396,0-2.796,0.095-4.17,0.277
		c-1.809-1.366-4.119-2.742-6.763-3.47c-0.341-0.094-0.7,0.089-0.823,0.423c-0.681,1.843-0.986,3.742-1.086,5.504
		c-11.339,5.068-18.646,16.306-18.646,28.75c0,17.362,14.125,31.487,31.487,31.487c2.867,0,5.702-0.385,8.421-1.143
		c0.332-0.088,0.659-0.183,0.985-0.285c5.374-1.681,10.198-4.804,13.956-8.966c4.355-0.444,8.691,0.425,12.551,2.542
		c1.521,0.834,2.928,1.842,4.19,3c0.217,0.193,0.423,0.391,0.626,0.594c0.131,0.13,0.307,0.2,0.484,0.2
		c0.072,0,0.146-0.012,0.219-0.036c0.245-0.083,0.424-0.298,0.457-0.555c0.195-1.431,0.262-2.892,0.199-4.343
		c-0.051-1.183-0.186-2.367-0.404-3.534c0.936,0.406,1.84,0.865,2.7,1.393c0.247,0.148,0.489,0.304,0.728,0.464
		c0.115,0.077,0.248,0.116,0.381,0.116c0.117,0,0.235-0.03,0.338-0.089c0.229-0.128,0.359-0.374,0.345-0.633
		c-0.083-1.444-0.298-2.891-0.634-4.301c-0.273-1.149-0.633-2.285-1.07-3.391c0.993,0.216,1.971,0.495,2.916,0.85
		c0.271,0.099,0.538,0.204,0.803,0.316c0.239,0.103,0.516,0.06,0.713-0.11c0.195-0.17,0.28-0.435,0.216-0.688
		c-0.356-1.396-0.841-2.775-1.442-4.101c-0.49-1.079-1.061-2.125-1.697-3.124c1.018,0.025,2.027,0.111,3.023,0.279
		c0.284,0.044,0.565,0.097,0.849,0.158c0.253,0.054,0.516-0.04,0.679-0.243C113.18,62.5,113.212,62.222,113.101,61.988
		 M51.893,36.286c8.831,1.565,14.111,13.244,15.68,17.259C64.051,52.133,54.603,47.385,51.893,36.286 M68.718,52.705
		c-0.702-1.766-1.974-4.633-3.837-7.582c-3.521-5.575-7.671-9.013-12.094-10.047c2.687-1.75,9.017-5.323,15.931-5.323
		c6.903,0,13.238,3.574,15.927,5.324c-4.422,1.033-8.573,4.471-12.094,10.046C70.69,48.071,69.418,50.938,68.718,52.705
		 M69.865,53.542c1.567-4.016,6.849-15.691,15.679-17.256C82.836,47.364,73.386,52.125,69.865,53.542 M85.627,23.67
		c1.335,4.183,0.741,8.67,0.361,10.653c-1.528-1.056-4.97-3.214-9.349-4.617C77.948,28.305,81.313,25.066,85.627,23.67
		 M62.488,26.728c3.957,0,7.77,0.755,11.372,2.229c-1.641-0.354-3.367-0.571-5.142-0.571c-2.261,0-4.442,0.353-6.463,0.891
		c-0.362-0.417-1.204-1.341-2.434-2.418C60.708,26.782,61.598,26.728,62.488,26.728 M51.807,23.67
		c4.306,1.393,7.676,4.634,8.987,6.036c-4.377,1.403-7.819,3.561-9.349,4.616C51.065,32.339,50.472,27.852,51.807,23.67
		 M49.606,29.63c0.02,3.358,0.702,5.926,0.75,6.099c0.005,0.019,0.016,0.033,0.023,0.049c0.229,1.094,0.525,2.129,0.866,3.113
		C51.13,38.89,51.017,38.88,50.9,38.88c-8.834,0-16.272,6.106-18.312,14.321C33.825,43.001,40.209,34.081,49.606,29.63 M50.9,40.247
		c0.293,0,0.584,0.015,0.874,0.029c0.897,2.151,2.038,4.03,3.306,5.653c-3.098,3.18-4.799,7.352-4.799,11.818
		c0,6.48,3.629,12.298,9.352,15.161c-2.644,1.531-5.638,2.336-8.731,2.336c-9.648,0-17.499-7.849-17.499-17.497
		C33.402,48.098,41.252,40.247,50.9,40.247 M103.211,79.4c0.038,0.92,0.024,1.844-0.045,2.759c-1.249-1.099-2.63-2.064-4.106-2.875
		c-3.693-2.025-7.794-2.984-11.957-2.808c0.266-0.333,0.525-0.672,0.778-1.018c0.001,0,0.004,0,0.007,0
		c4.621-1.779,9.563-1.919,14.299-0.405c0.156,0.049,0.309,0.11,0.467,0.165C102.96,76.592,103.151,77.995,103.211,79.4
		 M106.7,73.074c0.213,0.894,0.375,1.803,0.482,2.717c-1.429-0.836-2.967-1.522-4.58-2.041c-4.394-1.405-9.13-1.442-13.521-0.14
		c0.065-0.119,0.132-0.239,0.198-0.358c4.47-3.402,9.997-4.911,15.586-4.249c0.163,0.018,0.326,0.048,0.488,0.071
		C105.922,70.369,106.376,71.711,106.7,73.074 M109.911,68.775c-1.566-0.55-3.206-0.93-4.884-1.13
		c-4.785-0.567-9.526,0.366-13.671,2.636c3.729-4.5,9.092-7.291,14.986-7.729c0.166-0.013,0.33-0.014,0.494-0.021
		c0.799,1.157,1.503,2.387,2.084,3.667C109.3,67.039,109.632,67.901,109.911,68.775 M106.242,61.189
		c-6.94,0.514-13.196,4.093-17.16,9.816c-0.325,0.467-0.625,0.945-0.91,1.431c-0.013,0.021-0.024,0.041-0.034,0.063
		c-0.2,0.344-0.401,0.689-0.58,1.04c-3.816,5.73-9.521,10.014-16.07,12.062c-0.307,0.095-0.617,0.186-0.938,0.273
		c-2.604,0.726-5.318,1.095-8.061,1.095c-13.771,0-25.414-9.291-28.99-21.933C36.355,71.828,43.082,76.61,50.9,76.61
		c3.785,0,7.434-1.116,10.55-3.227c0.001,0,0.001-0.001,0.002-0.001l0.004-0.004c1.125-0.757,2.173-1.646,3.12-2.64
		c1.546-1.631,3.001-4.471,3.964-6.351c4.464-8.719,7.267-11.736,13.039-14.031c2.4-0.955,6.605-1.961,10.574-1.65
		c6.93,0.539,13.36,4.301,17.637,10.32c0.534,0.753,1.024,1.536,1.463,2.341C109.608,61.126,107.925,61.068,106.242,61.189"/>
	<g>
		<path fill="#FFFFFF" d="M39.287,108.141c-0.159-0.452-0.261-1.121-0.306-2.006c-0.559,0.727-1.269,1.287-2.133,1.681
			c-0.864,0.395-1.779,0.591-2.745,0.591c-1.382,0-2.5-0.385-3.356-1.156c-0.856-0.771-1.283-1.745-1.283-2.924
			c0-1.4,0.583-2.507,1.748-3.323c1.166-0.815,2.79-1.223,4.871-1.223h2.885v-1.635c0-1.028-0.317-1.836-0.951-2.426
			c-0.633-0.589-1.556-0.883-2.771-0.883c-1.107,0-2.025,0.283-2.751,0.85c-0.728,0.567-1.09,1.25-1.09,2.047l-1.595-0.013
			c0-1.143,0.531-2.133,1.595-2.97c1.063-0.838,2.37-1.257,3.92-1.257c1.604,0,2.869,0.401,3.794,1.203
			c0.926,0.802,1.403,1.921,1.429,3.356v6.806c0,1.39,0.147,2.432,0.439,3.124v0.159H39.287z M34.29,106.999
			c1.063,0,2.014-0.258,2.851-0.771s1.447-1.2,1.828-2.06v-3.163h-2.844c-1.587,0.018-2.828,0.308-3.722,0.871
			c-0.895,0.563-1.342,1.335-1.342,2.319c0,0.806,0.298,1.475,0.896,2.006S33.333,106.999,34.29,106.999z"/>
		<path fill="#FFFFFF" d="M51.435,95.116c-0.337-0.062-0.695-0.093-1.076-0.093c-0.993,0-1.833,0.277-2.519,0.831
			c-0.687,0.554-1.177,1.357-1.469,2.412v9.875H44.79V93.76h1.556l0.026,2.287c0.842-1.702,2.193-2.553,4.055-2.553
			c0.443,0,0.793,0.058,1.05,0.173L51.435,95.116z"/>
		<path fill="#FFFFFF" d="M59.012,107.065c1.107,0,2.036-0.313,2.785-0.937c0.749-0.625,1.154-1.433,1.217-2.426h1.528
			c-0.045,0.877-0.319,1.676-0.825,2.399c-0.504,0.722-1.175,1.287-2.013,1.694c-0.837,0.407-1.734,0.611-2.691,0.611
			c-1.887,0-3.383-0.655-4.486-1.967c-1.103-1.311-1.655-3.075-1.655-5.29v-0.478c0-1.418,0.249-2.671,0.745-3.762
			c0.496-1.09,1.208-1.932,2.134-2.525c0.925-0.594,2.008-0.891,3.25-0.891c1.577,0,2.877,0.47,3.9,1.409
			c1.024,0.94,1.57,2.175,1.642,3.709h-1.528c-0.072-1.125-0.477-2.033-1.217-2.725c-0.74-0.69-1.672-1.037-2.797-1.037
			c-1.436,0-2.55,0.518-3.343,1.556c-0.793,1.036-1.189,2.489-1.189,4.358v0.465c0,1.834,0.396,3.266,1.189,4.293
			C56.449,106.551,57.568,107.065,59.012,107.065z"/>
		<path fill="#FFFFFF" d="M76.795,108.141c-0.16-0.452-0.261-1.121-0.306-2.006c-0.559,0.727-1.27,1.287-2.133,1.681
			c-0.865,0.395-1.779,0.591-2.745,0.591c-1.382,0-2.501-0.385-3.356-1.156c-0.856-0.771-1.283-1.745-1.283-2.924
			c0-1.4,0.583-2.507,1.748-3.323c1.165-0.815,2.789-1.223,4.872-1.223h2.884v-1.635c0-1.028-0.316-1.836-0.949-2.426
			c-0.635-0.589-1.558-0.883-2.772-0.883c-1.108,0-2.024,0.283-2.75,0.85c-0.727,0.567-1.09,1.25-1.09,2.047l-1.595-0.013
			c0-1.143,0.532-2.133,1.595-2.97c1.063-0.838,2.37-1.257,3.92-1.257c1.604,0,2.869,0.401,3.796,1.203
			c0.925,0.802,1.402,1.921,1.429,3.356v6.806c0,1.39,0.146,2.432,0.438,3.124v0.159H76.795z M71.797,106.999
			c1.063,0,2.014-0.258,2.852-0.771c0.837-0.514,1.446-1.2,1.827-2.06v-3.163h-2.844c-1.586,0.018-2.827,0.308-3.722,0.871
			c-0.895,0.563-1.342,1.335-1.342,2.319c0,0.806,0.299,1.475,0.897,2.006C70.063,106.732,70.84,106.999,71.797,106.999z"/>
		<path fill="#FFFFFF" d="M81.659,100.818c0-2.233,0.499-4.012,1.496-5.336c0.996-1.325,2.35-1.987,4.061-1.987
			c1.939,0,3.42,0.767,4.439,2.299v-8.067h1.581v20.415h-1.489l-0.066-1.914c-1.019,1.454-2.516,2.18-4.492,2.18
			c-1.656,0-2.992-0.666-4.006-2c-1.016-1.334-1.523-3.135-1.523-5.403V100.818z M83.269,101.097c0,1.833,0.367,3.281,1.104,4.339
			c0.734,1.06,1.771,1.589,3.109,1.589c1.959,0,3.35-0.865,4.174-2.592v-6.752c-0.824-1.871-2.207-2.805-4.147-2.805
			c-1.337,0-2.379,0.525-3.124,1.574C83.64,97.501,83.269,99.05,83.269,101.097z"/>
		<path fill="#FFFFFF" d="M97.329,89.607c0-0.299,0.098-0.553,0.293-0.76c0.194-0.207,0.46-0.311,0.797-0.311
			s0.605,0.104,0.805,0.311c0.199,0.207,0.299,0.46,0.299,0.76s-0.1,0.55-0.299,0.753s-0.468,0.304-0.805,0.304
			s-0.603-0.101-0.797-0.304C97.427,90.157,97.329,89.906,97.329,89.607z M99.203,108.141h-1.595V93.76h1.595V108.141z"/>
		<path fill="#FFFFFF" d="M112.601,108.141c-0.159-0.452-0.261-1.121-0.306-2.006c-0.558,0.727-1.269,1.287-2.132,1.681
			c-0.865,0.395-1.779,0.591-2.746,0.591c-1.382,0-2.501-0.385-3.355-1.156c-0.855-0.771-1.283-1.745-1.283-2.924
			c0-1.4,0.584-2.507,1.748-3.323c1.165-0.815,2.789-1.223,4.872-1.223h2.884v-1.635c0-1.028-0.316-1.836-0.95-2.426
			s-1.558-0.883-2.771-0.883c-1.108,0-2.024,0.283-2.751,0.85c-0.727,0.567-1.09,1.25-1.09,2.047l-1.596-0.013
			c0-1.143,0.532-2.133,1.596-2.97c1.063-0.838,2.37-1.257,3.92-1.257c1.604,0,2.869,0.401,3.795,1.203s1.402,1.921,1.429,3.356
			v6.806c0,1.39,0.147,2.432,0.439,3.124v0.159H112.601z M107.604,106.999c1.063,0,2.013-0.258,2.851-0.771s1.446-1.2,1.828-2.06
			v-3.163h-2.844c-1.586,0.018-2.826,0.308-3.723,0.871c-0.895,0.563-1.342,1.335-1.342,2.319c0,0.806,0.299,1.475,0.896,2.006
			C105.869,106.732,106.646,106.999,107.604,106.999z"/>
	</g>
</g>
<g>
	<path fill="#FFFFFF" d="M59.855,116.067c-0.411,0-1.108-0.608-1.108-0.962c0-0.063,0.023-0.119,0.074-0.162
		c0.006-0.005,2.313-1.912,3.5-2.215c0.122-0.031,0.238-0.047,0.352-0.047c0.316,0,0.606,0.122,0.91,0.363
		c0.308,0.248,0.432,0.573,0.432,0.939c0,1.17-1.262,2.755-1.791,3.508c0.757,0.047,1.442,0.298,1.883,0.74
		c2.638-1.881,4.866-3.222,4.882-3.231c0.179-0.119,0.591-0.085,0.919,0.216c0.327,0.302,0.448,0.642,0.268,0.76
		c-0.016,0.011-2.607,1.708-5.5,3.786c-0.254,2.395-5.02,6.889-7.039,7.578c-0.153,0.053-0.313,0.076-0.474,0.076
		c-0.818,0-1.657-0.625-1.657-1.37c0-0.101,0.015-0.203,0.048-0.307c0.443-1.405,4.317-4.453,7.791-6.961
		c-0.139-0.083-0.385-0.113-0.666-0.113c-0.606,0-1.369,0.143-1.531,0.197c-0.028,0.006-0.056,0.008-0.085,0.008
		c-0.437,0-1.104-0.601-1.104-0.955c0-0.051,0.014-0.096,0.043-0.134c0.281-0.366,1.562-2.071,2.289-3.394
		c-1.063,0.639-2.248,1.618-2.252,1.623C59.99,116.049,59.927,116.067,59.855,116.067z M57.428,125.763
		c1.447-0.889,2.979-2.349,4.086-3.65C59.77,123.468,58.228,124.788,57.428,125.763z"/>
	<path fill="#FFFFFF" d="M69.469,114.155c0-1.174,1.152-1.745,2.341-1.745c0.781,0,1.578,0.246,2.076,0.731
		c0.508,0.495,0.772,1.195,0.772,1.962c0,0.475-0.103,0.976-0.313,1.468c1.004-0.194,2.5-0.716,3.737-1.726
		c0.048-0.039,0.106-0.057,0.174-0.057c0.384,0,0.993,0.6,0.993,0.96c0,0.073-0.025,0.136-0.081,0.182
		c-1.694,1.373-3.483,1.874-4.907,1.874c-0.18,0-0.354-0.008-0.52-0.023c-1.354,2.208-2.858,2.746-3.965,2.746
		c-0.979,0-1.646-0.421-1.618-0.478c-0.702-0.496-0.976-1.128-0.976-1.798c0-1.432,1.256-3.041,2.298-3.885
		C69.473,114.295,69.469,114.223,69.469,114.155z M68.506,118.936c-0.016,0.21-0.019,0.363,0.002,0.428
		c0.176,0.083,0.361,0.12,0.554,0.12c1.051,0,2.28-1.123,3.021-2.136c-0.791-0.358-1.435-0.868-1.892-1.437
		C69.505,116.64,68.586,117.931,68.506,118.936z M71.5,114.809c0,0.227-0.404,0.278-0.632,0.458c0.213,0.745,0.939,1.143,1.715,1.31
		c0.357-0.631,0.762-1.616,0.762-2.368c0-0.236-0.039-0.449-0.133-0.621c-0.017-0.033-0.098-0.048-0.219-0.048
		c-0.482,0-1.605,0.248-1.946,0.695C71.381,114.509,71.5,114.686,71.5,114.809z"/>
	<path fill="#FFFFFF" d="M78.484,114.155c0-1.174,1.151-1.745,2.341-1.745c0.781,0,1.578,0.246,2.076,0.731
		c0.508,0.495,0.772,1.195,0.772,1.962c0,0.475-0.103,0.976-0.313,1.468c1.004-0.194,2.5-0.716,3.737-1.726
		c0.048-0.039,0.107-0.057,0.174-0.057c0.384,0,0.993,0.6,0.993,0.96c0,0.073-0.025,0.136-0.081,0.182
		c-1.694,1.373-3.483,1.874-4.907,1.874c-0.18,0-0.353-0.008-0.52-0.023c-1.353,2.208-2.858,2.746-3.965,2.746
		c-0.979,0-1.646-0.421-1.619-0.478c-0.701-0.496-0.975-1.128-0.975-1.798c0-1.432,1.256-3.041,2.298-3.885
		C78.488,114.295,78.484,114.223,78.484,114.155z M77.521,118.936c-0.017,0.21-0.019,0.363,0.002,0.428
		c0.176,0.083,0.362,0.12,0.554,0.12c1.051,0,2.28-1.123,3.021-2.136c-0.791-0.358-1.435-0.868-1.892-1.437
		C78.521,116.64,77.603,117.931,77.521,118.936z M80.516,114.809c0,0.227-0.404,0.278-0.631,0.458
		c0.212,0.745,0.938,1.143,1.714,1.31c0.357-0.631,0.763-1.616,0.763-2.368c0-0.236-0.04-0.449-0.134-0.621
		c-0.017-0.033-0.098-0.048-0.219-0.048c-0.482,0-1.605,0.248-1.946,0.695C80.396,114.509,80.516,114.686,80.516,114.809z"/>
</g>
</svg>
